<?xml version="1.0"?>
<svg xmlns="http://www.w3.org/2000/svg" height="512px" viewBox="0 -12 436 435" width="512px" class=""><g><path d="m103 85.316406-70 36.398438v43.480468l70-36.394531zm0 0" data-original="#000000" class="active-path" data-old_color="#00FF60" fill="#1DDB65"/><path d="m283 70.96875-132-69.175781v339.445312l132 70.265625zm-19 254.691406c.0625 2.429688-1.164062 4.707032-3.226562 5.992188-1.035157.65625-2.234376 1.007812-3.460938 1.007812-1.125 0-2.230469-.277344-3.222656-.804687l-78.488282-41.339844c-2.269531-1.226563-3.65625-3.617187-3.601562-6.195313v-69.089843c-.070312-2.421875 1.152344-4.703125 3.207031-5.992188 2.035157-1.261719 4.59375-1.339843 6.699219-.199219l78.492188 41.339844c2.269531 1.226563 3.65625 3.617188 3.601562 6.195313zm-.527344-134.914062c-1.800781 3.421875-6.03125 4.734375-9.453125 2.933594l-78.558593-41.339844c-3.382813-1.820313-4.667969-6.027344-2.878907-9.425782 1.789063-3.398437 5.984375-4.722656 9.398438-2.964843l78.558593 41.34375c3.417969 1.800781 4.734376 6.03125 2.933594 9.453125zm0-59.21875c-.863281 1.644531-2.34375 2.878906-4.117187 3.429687-1.773438.550781-3.695313.371094-5.335938-.492187l-78.558593-41.34375c-3.421876-1.800782-4.734376-6.03125-2.933594-9.453125 1.800781-3.421875 6.03125-4.734375 9.453125-2.9375l78.558593 41.34375c3.421876 1.800781 4.734376 6.03125 2.933594 9.453125zm0 0" data-original="#000000" class="active-path" data-old_color="#00FF60" fill="#1DDB65"/><path d="m186 280.09375 64 33.972656v-53.265625l-64-33.976562zm0 0" data-original="#000000" class="active-path" data-old_color="#00FF60" fill="#1DDB65"/><path d="m137 1.726562-137 69.667969v340.652344l137-70.769531zm-118 115.710938c-.121094-2.578125 1.242188-4.996094 3.507812-6.226562l84.632813-43.582032c2.128906-1.128906 4.699219-1.03125 6.734375.257813 2.039062 1.285156 3.230469 3.5625 3.125 5.96875v59.21875c.101562 2.585937-1.273438 5-3.550781 6.230469l-84.679688 43.578124c-.96875.507813-2.042969.773438-3.132812.773438-1.25 0-2.476563-.359375-3.53125-1.027344-2.019531-1.300781-3.199219-3.574218-3.105469-5.972656zm94.644531 150.171875-84.933593 43.578125c-2.226563 1.152344-4.902344 1.027344-7.011719-.328125s-3.328125-3.738281-3.203125-6.242187c.128906-2.503907 1.585937-4.75 3.820312-5.886719l84.9375-43.578125c2.226563-1.152344 4.898438-1.027344 7.007813.328125s3.332031 3.738281 3.203125 6.242187c-.125 2.503906-1.585938 4.75-3.820313 5.886719zm0-49.347656-84.933593 43.578125c-2.226563 1.152344-4.902344 1.027344-7.011719-.328125s-3.328125-3.738281-3.203125-6.242188c.128906-2.503906 1.585937-4.75 3.820312-5.886719l84.9375-43.578124c2.226563-1.15625 4.898438-1.027344 7.007813.328124 2.109375 1.355469 3.332031 3.738282 3.203125 6.242188-.125 2.503906-1.585938 4.75-3.820313 5.886719zm0 0" data-original="#000000" class="active-path" data-old_color="#00FF60" fill="#1DDB65"/><path d="m436 .5-139 71.226562v340.710938l139-71.226562zm-22.921875 197.035156-84.933594 43.578125c-2.226562 1.152344-4.902343 1.027344-7.007812-.328125-2.109375-1.359375-3.332031-3.738281-3.203125-6.242187.125-2.503907 1.582031-4.75 3.820312-5.886719l84.933594-43.578125c2.230469-1.167969 4.914062-1.050781 7.03125.304687 2.117188 1.359376 3.34375 3.75 3.210938 6.261719-.132813 2.511719-1.601563 4.761719-3.851563 5.890625zm0-49.347656-84.933594 43.578125c-2.226562 1.152344-4.902343 1.027344-7.007812-.328125-2.109375-1.359375-3.332031-3.738281-3.203125-6.242188.125-2.503906 1.582031-4.75 3.820312-5.886718l84.933594-43.578125c2.230469-1.167969 4.914062-1.050781 7.03125.304687 2.117188 1.359375 3.34375 3.75 3.210938 6.261719-.132813 2.511719-1.601563 4.761719-3.851563 5.890625zm0-49.347656-84.933594 43.578125c-2.226562 1.152343-4.902343 1.027343-7.007812-.328125-2.109375-1.359375-3.332031-3.738282-3.203125-6.242188.125-2.507812 1.582031-4.75 3.820312-5.886718l84.933594-43.578126c2.230469-1.167968 4.914062-1.050781 7.03125.304688 2.117188 1.359375 3.34375 3.75 3.210938 6.261719-.132813 2.511719-1.601563 4.761719-3.851563 5.890625zm0 0" data-original="#000000" class="active-path" data-old_color="#00FF60" fill="#1DDB65"/></g> </svg>
